<?xml version="1.0" standalone="no"?>
<!DOCTYPE svg PUBLIC "-//W3C//DTD SVG 20010904//EN"
 "http://www.w3.org/TR/2001/REC-SVG-20010904/DTD/svg10.dtd">
<svg version="1.0" xmlns="http://www.w3.org/2000/svg"
 width="96.000000pt" height="96.000000pt" viewBox="0 0 96.000000 96.000000"
 preserveAspectRatio="xMidYMid meet">
<metadata>
Created by potrace 1.14, written by Peter Selinger 2001-2017
</metadata>
<g transform="translate(0.000000,96.000000) scale(0.100000,-0.100000)"
fill="#000000" stroke="none">
<path d="M191 861 c-11 -11 -23 -31 -26 -43 -3 -13 -5 -175 -3 -360 3 -308 5
-339 21 -355 16 -16 42 -18 298 -18 l280 0 20 25 c18 24 19 42 16 377 -2 323
-3 354 -20 370 -16 16 -44 18 -292 21 -264 3 -275 2 -294 -17z"/>
</g>
</svg>
